<?xml version="1.0" encoding="iso-8859-1"?>
<!-- Generator: Adobe Illustrator 16.0.0, SVG Export Plug-In . SVG Version: 6.00 Build 0)  -->
<!DOCTYPE svg PUBLIC "-//W3C//DTD SVG 1.1//EN" "http://www.w3.org/Graphics/SVG/1.1/DTD/svg11.dtd">
<svg version="1.1" id="Layer_1" xmlns="http://www.w3.org/2000/svg" xmlns:xlink="http://www.w3.org/1999/xlink" x="0px" y="0px"
	 width="32px" height="32px" viewBox="0 0 32 32" style="enable-background:new 0 0 32 32;" xml:space="preserve">
<g id="facebook">
	<path d="M29.016,0.001H2.984c-1.647,0-2.983,1.336-2.983,2.984v26.03C0.001,30.664,1.337,32,2.984,32h26.031
		C30.664,32,32,30.664,32,29.016V2.985C32,1.337,30.664,0.001,29.016,0.001z M20,10.001c0,0.553-0.447,1-1,1h-3v3h3
		c0.553,0,1,0.447,1,1v2c0,0.553-0.447,1-1,1h-3v8c0,0.553-0.447,1-1,1h-2c-0.553,0-1-0.447-1-1v-8h-1c-0.553,0-1-0.447-1-1v-2
		c0-0.553,0.447-1,1-1h1v-3c0-2.209,1.791-4,4-4h3c0.553,0,1,0.447,1,1V10.001z"/>
</g>
<g id="Layer_1_1_">
</g>
</svg>
