<?xml version="1.0" encoding="iso-8859-1"?>
<!-- Generator: Adobe Illustrator 16.0.0, SVG Export Plug-In . SVG Version: 6.00 Build 0)  -->
<!DOCTYPE svg PUBLIC "-//W3C//DTD SVG 1.1//EN" "http://www.w3.org/Graphics/SVG/1.1/DTD/svg11.dtd">
<svg version="1.1" xmlns="http://www.w3.org/2000/svg" xmlns:xlink="http://www.w3.org/1999/xlink" x="0px" y="0px"
	 width="29.433px" height="29.489px" viewBox="0 0 29.433 29.489" style="enable-background:new 0 0 29.433 29.489;"
	 xml:space="preserve">
<g id="search">
	<path d="M17.074,2.929C13.168-0.977,6.836-0.977,2.93,2.93s-3.906,10.239-0.001,14.146c3.412,3.412,8.675,3.842,12.556,1.294
		l3.584,3.585c-0.375,0.375-0.586,0.884-0.586,1.414s0.211,1.039,0.586,1.414l3.537,3.536c0.75,0.75,1.768,1.171,2.828,1.171
		s2.078-0.421,2.828-1.172c1.562-1.562,1.562-4.095,0-5.656l-3.537-3.536c-0.78-0.78-2.046-0.78-2.828,0.001l-3.574-3.574
		C20.92,11.664,20.506,6.361,17.074,2.929z M5.05,14.954c-2.73-2.73-2.729-7.173,0.001-9.903s7.172-2.731,9.902-0.001
		s2.73,7.174,0,9.904S7.78,17.685,5.05,14.954z"/>
</g>
<g id="Layer_1">
</g>
</svg>
