<?xml version="1.0" encoding="iso-8859-1"?>
<!-- Generator: Adobe Illustrator 16.0.0, SVG Export Plug-In . SVG Version: 6.00 Build 0)  -->
<!DOCTYPE svg PUBLIC "-//W3C//DTD SVG 1.1//EN" "http://www.w3.org/Graphics/SVG/1.1/DTD/svg11.dtd">
<svg version="1.1" xmlns="http://www.w3.org/2000/svg" xmlns:xlink="http://www.w3.org/1999/xlink" x="0px" y="0px" width="32px"
	 height="32px" viewBox="0 0 32 32" style="enable-background:new 0 0 32 32;" xml:space="preserve">
<g id="twitter">
	<path d="M32,2.984C32,1.336,30.664,0,29.016,0H2.984C1.336,0,0,1.336,0,2.984v26.031C0,30.664,1.336,32,2.984,32h26.031
		C30.664,32,32,30.664,32,29.016V2.984z M24.4,12.254c0.007,0.183,0.011,0.365,0.011,0.549c0,5.604-4.23,12.066-11.964,12.066
		c-2.373,0-4.587-0.702-6.447-1.904c0.327,0.038,0.654,0.057,0.994,0.057c1.968,0,3.764-0.677,5.202-1.813
		c-1.839-0.035-3.428-1.261-3.963-2.946c0.257,0.05,0.448,0.076,0.72,0.076c0.384,0,0.48-0.052,0.836-0.148
		C7.863,17.8,6,16.085,6,14.032c0-0.02,0-0.038,0-0.055c1,0.318,1.631,0.509,2.318,0.53c-1.127-0.761-1.518-2.058-1.518-3.529
		c0-0.778,0.24-1.506,0.602-2.132c2.072,2.564,5.188,4.253,8.682,4.431c-0.071-0.312-0.103-0.635-0.103-0.967
		c0-2.342,1.889-4.24,4.21-4.24c1.208,0,2.302,0.514,3.07,1.339c0.957-0.19,1.858-0.543,2.669-1.028
		c-0.313,0.989-0.979,1.82-1.847,2.346c0.851-0.103,1.661-0.331,2.413-0.669C25.934,10.908,25.221,11.655,24.4,12.254z"/>
</g>
<g id="Layer_1">
</g>
</svg>
