<?xml version="1.0" encoding="iso-8859-1"?>
<!-- Generator: Adobe Illustrator 16.0.0, SVG Export Plug-In . SVG Version: 6.00 Build 0)  -->
<!DOCTYPE svg PUBLIC "-//W3C//DTD SVG 1.1//EN" "http://www.w3.org/Graphics/SVG/1.1/DTD/svg11.dtd">
<svg version="1.1" xmlns="http://www.w3.org/2000/svg" xmlns:xlink="http://www.w3.org/1999/xlink" x="0px" y="0px" width="32px"
	 height="32px" viewBox="0 0 32 32" style="enable-background:new 0 0 32 32;" xml:space="preserve">
<g id="youtube">
	<path d="M15.104,17.542h-0.356c-0.203,0-0.369,0.167-0.369,0.37v3.88c0,0.203-0.113,0.491-0.251,0.643c0,0-0.222,0.24-0.442,0.24
		c-0.146,0-0.146,0-0.146,0c-0.061-0.143-0.111-0.296-0.115-0.342c-0.002-0.046-0.004-0.508-0.004-0.712v-3.709
		c0-0.203-0.166-0.37-0.371-0.37h-0.354c-0.204,0-0.37,0.167-0.37,0.37v4.038c0,0.204,0.009,0.536,0.019,0.74
		c0,0,0.02,0.347,0.079,0.529c0.109,0.306,0.352,0.45,0.705,0.45c0.402,0,0.973-0.499,0.973-0.499
		c0.154-0.134,0.279-0.096,0.279,0.086c0,0.181,0.166,0.33,0.369,0.33h0.356c0.202,0,0.37-0.167,0.37-0.371v-5.304
		C15.475,17.709,15.307,17.542,15.104,17.542z"/>
	<path d="M15.363,11.647c0.357,0,0.455-0.484,0.455-0.484c0.04-0.199,0.073-0.529,0.073-0.733V8.23c0-0.564-0.171-0.847-0.528-0.847
		c-0.355,0-0.454,0.484-0.454,0.484c-0.04,0.199-0.073,0.529-0.073,0.733v2.199C14.836,11.364,15.008,11.647,15.363,11.647z"/>
	<path d="M11.796,15.475H8.717c-0.203,0-0.369,0.167-0.369,0.37v0.401c0,0.204,0.166,0.37,0.369,0.37h0.549
		c0.203,0,0.369,0.166,0.369,0.369v6.23c0,0.204,0.167,0.371,0.371,0.371h0.478c0.204,0,0.37-0.167,0.37-0.371v-6.23
		c0-0.203,0.166-0.369,0.369-0.369h0.573c0.203,0,0.37-0.166,0.37-0.37v-0.401C12.166,15.642,11.999,15.475,11.796,15.475z"/>
	<path d="M19.524,18.151c-0.147-0.454-0.439-0.682-0.876-0.682c-0.402,0-0.856,0.406-0.856,0.406
		c-0.152,0.137-0.275,0.081-0.275-0.122v-1.909c0-0.203-0.167-0.37-0.37-0.37h-0.354c-0.204,0-0.37,0.167-0.37,0.37v7.371
		c0,0.204,0.166,0.371,0.37,0.371h0.354c0.203,0,0.37-0.133,0.37-0.293c0-0.162,0.123-0.183,0.275-0.045
		c0,0,0.468,0.421,0.856,0.421c0.437,0,0.675-0.369,0.675-0.369c0.11-0.17,0.226-0.459,0.255-0.64
		c0.031-0.182,0.056-1.056,0.056-1.259v-1.667c0-0.204-0.005-0.536-0.015-0.739C19.619,18.996,19.596,18.395,19.524,18.151z
		 M18.539,21.488c0,0.204-0.032,0.533-0.071,0.732c0,0-0.089,0.454-0.405,0.454c-0.18,0-0.248-0.051-0.248-0.051
		c-0.164-0.121-0.298-0.386-0.298-0.589V19.09c0-0.203,0.134-0.467,0.299-0.587c0,0,0.067-0.049,0.247-0.049
		c0.316,0,0.406,0.462,0.406,0.462c0.039,0.2,0.07,0.529,0.07,0.732V21.488z"/>
	<path d="M23.428,18.088c-0.306-0.413-0.742-0.618-1.291-0.618c-0.559,0-0.995,0.205-1.313,0.618
		c-0.232,0.307-0.303,1.057-0.303,1.057c-0.02,0.202-0.035,0.535-0.035,0.737v1.377c0,0.204,0.018,0.536,0.039,0.737
		c0,0,0.081,0.752,0.313,1.055c0.317,0.412,0.753,0.619,1.326,0.619c0.572,0,1.021-0.216,1.323-0.656
		c0.134-0.194,0.162-0.298,0.162-0.298c0.052-0.196,0.1-0.437,0.106-0.534c0.006-0.098,0.012-0.565,0.012-0.608
		c0-0.044-0.166-0.08-0.369-0.08H23.02c-0.203,0-0.373,0.153-0.377,0.34c-0.004,0.188-0.092,0.551-0.182,0.732
		c0,0-0.055,0.109-0.324,0.109c-0.375,0-0.48-0.478-0.48-0.478c-0.043-0.199-0.078-0.528-0.078-0.732v-0.331
		c0-0.203,0.166-0.37,0.369-0.37h1.451c0.203,0,0.369-0.166,0.369-0.369v-0.513c0-0.202-0.016-0.535-0.036-0.737
		C23.731,19.145,23.658,18.395,23.428,18.088z M22.303,19.853h-0.355c-0.203,0-0.369-0.126-0.369-0.28
		c0-0.153,0.035-0.441,0.078-0.641c0,0,0.105-0.478,0.471-0.478c0.362,0,0.467,0.478,0.467,0.478
		c0.043,0.199,0.079,0.487,0.079,0.641C22.673,19.727,22.506,19.853,22.303,19.853z"/>
	<path d="M29.016,0H2.984C1.336,0,0,1.336,0,2.984v26.031C0,30.664,1.336,32,2.984,32h26.031C30.664,32,32,30.664,32,29.016V2.984
		C32,1.336,30.664,0,29.016,0z M17.909,6.831c0-0.204,0.167-0.369,0.37-0.369h0.363c0.203,0,0.37,0.165,0.37,0.369v4.127
		c0,0.26,0,0.395,0.013,0.431c0.025,0.172,0.111,0.259,0.26,0.259c0.222,0,0.449-0.246,0.449-0.246
		c0.137-0.149,0.25-0.438,0.25-0.642V6.831c0-0.204,0.167-0.369,0.369-0.369h0.367c0.203,0,0.371,0.165,0.371,0.369v5.368
		c0,0.203-0.168,0.37-0.371,0.37h-0.367c-0.202,0-0.369-0.167-0.369-0.37v-0.297c-0.44,0.506-0.86,0.75-1.264,0.75
		c-0.357,0-0.603-0.144-0.714-0.453c-0.061-0.185-0.079-0.538-0.079-0.538c-0.01-0.204-0.019-0.536-0.019-0.74V6.831z M13.729,8.453
		c0-0.653,0.111-1.13,0.347-1.439c0.307-0.417,0.737-0.626,1.288-0.626c0.555,0,0.984,0.209,1.291,0.626
		c0.232,0.31,0.309,1.07,0.309,1.07c0.02,0.203,0.035,0.535,0.035,0.738v1.77c0,0.648-0.111,1.131-0.344,1.436
		c-0.307,0.417-0.736,0.625-1.291,0.625c-0.551,0-0.981-0.208-1.288-0.625c-0.235-0.305-0.31-1.067-0.31-1.067
		c-0.02-0.202-0.037-0.534-0.037-0.738V8.453z M9.848,4.373H10.4c0.203,0,0.413,0.16,0.466,0.357l0.678,2.505
		c0.054,0.196,0.139,0.196,0.189-0.001l0.651-2.503c0.051-0.197,0.26-0.358,0.463-0.358h0.501c0.204,0,0.322,0.16,0.263,0.354
		l-1.262,4.17c-0.059,0.194-0.107,0.521-0.107,0.724v2.579c0,0.203-0.166,0.37-0.369,0.37h-0.488c-0.203,0-0.369-0.167-0.369-0.37
		V9.25c-0.111-0.588-0.357-1.45-0.75-2.594C10.006,5.896,9.6,4.724,9.6,4.724C9.533,4.53,9.645,4.373,9.848,4.373z M24.801,23.949
		c-0.223,0.964-1.011,1.676-1.959,1.781c-2.246,0.25-4.521,0.251-6.785,0.25c-2.266,0.001-4.539,0-6.787-0.25
		c-0.947-0.105-1.736-0.817-1.957-1.781c-0.316-1.372-0.316-2.87-0.316-4.285c0-1.411,0.004-2.909,0.318-4.282
		c0.223-0.964,1.01-1.674,1.959-1.78c2.248-0.251,4.521-0.252,6.786-0.251c2.265-0.001,4.538,0,6.786,0.251
		c0.947,0.106,1.737,0.816,1.958,1.78c0.315,1.373,0.313,2.871,0.313,4.282C25.117,21.079,25.116,22.577,24.801,23.949z"/>
</g>
<g id="Layer_1">
</g>
</svg>
